# xmcd
#
# Track frame offsets: 
#        150
#        4602
#        23897
#        37945
#        55522
#        75822
#        92747
#        110420
#        128090
#        143842
#        160830
#        175560
#        194805
#        211785
#
# Disc length: 2887 seconds
#
# Revision: 2
# Processed by: cddbd v1.5.2PL0 Copyright (c) Steve Scherf et al.
# Submitted via: ExactAudioCopy v1.0b3
#
DISCID=a10b450e
DTITLE=桑田佳祐 - 天使が巻いたオルゴール・桑田佳祐メロディー
DYEAR=1991
DGENRE=JPop
TTITLE0=プロローグ
TTITLE1=ミス・ブランニュー・ディ
TTITLE2=Bye Bye My Love
TTITLE3=栞のテーマ
TTITLE4=真夏の果実
TTITLE5=メロディ
TTITLE6=悲しい気持ち
TTITLE7=YaYa (あの時を忘れない)
TTITLE8=夏をあきらめて
TTITLE9=One Day
TTITLE10=さよならベイビー
TTITLE11=いつか何処かで
TTITLE12=いとしのエリー
TTITLE13=エピローグ
EXTD=
EXTT0=
EXTT1=
EXTT2=
EXTT3=
EXTT4=
EXTT5=
EXTT6=
EXTT7=
EXTT8=
EXTT9=
EXTT10=
EXTT11=
EXTT12=
EXTT13=
PLAYORDER=
